<svg width="94" height="92" viewBox="0 0 94 92" fill="none" xmlns="http://www.w3.org/2000/svg">
<rect width="94" height="92" rx="20" fill="black"/>
<path d="M17.1951 11.5686C16.831 11.1895 16.3912 11 15.876 11C15.3608 11 14.9197 11.1913 14.5518 11.5739C14.189 11.9512 14.0051 12.4099 14.0051 12.9457C14.0051 13.4815 14.189 13.9407 14.5518 14.3175L20.2752 20.2698L14.5569 26.2167C14.189 26.5993 14.0051 27.0581 14 27.5939C14.0051 28.1297 14.189 28.5889 14.5518 28.9657C14.9197 29.343 15.3608 29.5343 15.8709 29.5396C16.3912 29.5396 16.8327 29.3483 17.2006 28.9657L23.5596 22.347C24.8945 20.9641 24.8945 19.5759 23.5596 18.1872L17.1951 11.5686ZM42.1224 26.2273C41.7545 25.8448 41.3079 25.6535 40.7876 25.6535V25.6508H28.5106V25.6535C27.9903 25.6535 27.5484 25.8448 27.1809 26.2273C26.813 26.6099 26.6291 27.0691 26.6291 27.6102C26.6291 28.1514 26.813 28.6159 27.1809 28.9985C27.5488 29.381 27.9899 29.5723 28.5106 29.5723V29.5697H40.7872V29.5723C41.3075 29.5723 41.7537 29.381 42.122 28.9985C42.4899 28.6159 42.6738 28.1514 42.6738 27.6102C42.6738 27.0691 42.4899 26.6099 42.122 26.2273H42.1224Z" fill="white"/>
</svg>
