<svg width="271" height="284" viewBox="0 0 271 284" fill="none" xmlns="http://www.w3.org/2000/svg">
<path fill-rule="evenodd" clip-rule="evenodd" d="M153 236C218.17 236 271 183.17 271 118C271 52.8304 218.17 0 153 0C87.8304 0 35 52.8304 35 118C35 128.846 36.4632 139.35 39.2031 149.325C16.2417 158.409 0 180.808 0 207C0 241.242 27.7583 269 62 269C87.7041 269 109.755 253.358 119.153 231.074C129.874 234.279 141.236 236 153 236Z" fill="#43C7FF" fill-opacity="0.2"/>
<path d="M225.19 251.639L215.342 260.707L223.168 247.573C217.002 236.389 206.917 226.724 206.917 226.724C206.917 226.724 185.995 246.772 185.995 262.531C185.995 278.29 195.362 283.792 206.917 283.792C218.472 283.792 227.84 278.29 227.84 262.531C227.84 259.023 226.802 255.303 225.19 251.639Z" fill="#F2F2F2"/>
<path d="M212.809 261.198V261.974C212.763 271.004 211.24 278.049 208.253 283.009C208.211 283.082 208.164 283.152 208.122 283.225L207.788 283.021L207.468 282.821C210.783 277.464 211.956 269.892 211.998 262.017C212.002 261.763 212.005 261.505 212.002 261.248C211.99 257.914 211.786 254.541 211.46 251.265C211.436 251.011 211.41 250.753 211.383 250.496C210.929 246.173 210.275 242.043 209.606 238.455C209.56 238.202 209.51 237.948 209.46 237.698C208.303 231.63 207.122 227.234 206.853 226.261C206.823 226.142 206.803 226.077 206.799 226.061L207.165 225.958L207.169 225.954L207.538 225.85C207.542 225.865 207.607 226.084 207.715 226.492C208.126 228.015 209.195 232.149 210.245 237.602C210.291 237.848 210.341 238.102 210.387 238.355C210.933 241.266 211.467 244.52 211.89 247.935C211.998 248.792 212.094 249.638 212.179 250.473C212.209 250.73 212.236 250.988 212.259 251.242C212.613 254.783 212.796 258.102 212.809 261.198Z" fill="white"/>
<path d="M210.244 237.602C209.987 237.636 209.725 237.671 209.46 237.698C208.74 237.772 208.016 237.809 207.292 237.809C204.205 237.813 201.157 237.125 198.371 235.794C198.21 235.998 198.048 236.202 197.883 236.41C200.813 237.84 204.031 238.582 207.292 238.578C208.065 238.578 208.837 238.537 209.606 238.455C209.868 238.428 210.129 238.394 210.387 238.355C212.513 238.05 214.581 237.424 216.519 236.498C216.354 236.287 216.193 236.079 216.035 235.875C214.2 236.733 212.249 237.314 210.244 237.602Z" fill="white"/>
<path d="M212.179 250.473C211.913 250.488 211.648 250.496 211.383 250.496C211.302 250.5 211.217 250.5 211.137 250.5C207.792 250.5 204.497 249.691 201.532 248.142C198.568 246.593 196.022 244.35 194.111 241.605C193.957 241.832 193.803 242.059 193.654 242.289C195.645 245.067 198.27 247.331 201.31 248.892C204.35 250.454 207.719 251.268 211.137 251.269C211.244 251.269 211.352 251.269 211.46 251.265C211.729 251.261 211.994 251.253 212.259 251.242C216.365 251.031 220.322 249.643 223.66 247.242C223.537 247.015 223.413 246.789 223.287 246.562C220.043 248.919 216.183 250.278 212.179 250.473Z" fill="white"/>
<path d="M212.809 261.198C212.54 261.221 212.271 261.236 212.002 261.248C211.713 261.259 211.425 261.267 211.136 261.267C206.642 261.262 202.271 259.801 198.676 257.103C195.081 254.405 192.457 250.615 191.197 246.3C191.024 246.612 190.851 246.919 190.685 247.231C192.106 251.535 194.846 255.283 198.518 257.94C202.189 260.598 206.604 262.031 211.136 262.036C211.425 262.036 211.713 262.032 211.998 262.017C212.271 262.009 212.54 261.994 212.809 261.974C218.245 261.549 223.317 259.073 226.997 255.049C226.916 254.764 226.824 254.483 226.732 254.199C223.177 258.254 218.183 260.764 212.809 261.198Z" fill="white"/>
<path d="M189.775 108.434L82.6592 94.7752C82.3707 94.7382 82.08 94.7193 81.7891 94.7187C81.5024 94.7182 81.2159 94.7363 80.9315 94.7729C80.6475 94.8094 80.3663 94.8644 80.0896 94.9377C79.8096 95.0124 79.5347 95.1052 79.2667 95.2154C79.0041 95.3232 78.7483 95.4469 78.5007 95.5857C78.2497 95.7256 78.0072 95.8802 77.7745 96.0486C77.5364 96.2215 77.3083 96.4077 77.0913 96.6064C76.8673 96.8109 76.6544 97.0272 76.4535 97.2545C76.2474 97.4885 76.0534 97.7329 75.8722 97.9868C75.6892 98.2439 75.5175 98.5113 75.3571 98.789C75.1966 99.0677 75.0478 99.3575 74.9105 99.6583C74.7731 99.9592 74.6479 100.27 74.5346 100.592C74.4174 100.924 74.3146 101.263 74.2264 101.61C74.1381 101.957 74.0644 102.31 74.0051 102.669C73.9471 103.027 73.9027 103.392 73.8719 103.762C73.841 104.132 73.8256 104.507 73.8256 104.886C73.8268 105.265 73.8422 105.643 73.8719 106.02C73.9015 106.396 73.9459 106.769 74.0051 107.14C74.065 107.512 74.1391 107.88 74.2273 108.244C74.3155 108.609 74.4183 108.969 74.5355 109.325C74.6488 109.669 74.7741 110.005 74.9114 110.334C75.0487 110.662 75.1976 110.982 75.358 111.293C75.5185 111.604 75.6902 111.905 75.8731 112.198C76.0558 112.492 76.2496 112.775 76.4545 113.047C76.6593 113.319 76.8719 113.579 77.0923 113.825C77.3126 114.071 77.5403 114.302 77.7754 114.52C78.0105 114.737 78.2526 114.941 78.5016 115.129C78.7479 115.316 79.0035 115.491 79.2676 115.652C79.5335 115.814 79.8082 115.961 80.0905 116.093C80.3644 116.22 80.6455 116.332 80.9324 116.426C81.2134 116.519 81.4998 116.595 81.79 116.653C82.0774 116.71 82.368 116.75 82.6602 116.771L189.776 124.607C190.088 124.63 190.401 124.599 190.702 124.515C190.855 124.472 191.004 124.417 191.148 124.35C191.299 124.28 191.444 124.199 191.582 124.107C191.722 124.014 191.856 123.912 191.983 123.801C192.116 123.685 192.242 123.562 192.361 123.431C192.486 123.293 192.604 123.148 192.714 122.998C192.828 122.843 192.937 122.678 193.042 122.502C193.147 122.327 193.246 122.144 193.339 121.954C193.433 121.764 193.52 121.566 193.602 121.361C193.684 121.156 193.759 120.944 193.829 120.724C193.898 120.505 193.961 120.28 194.018 120.048C194.079 119.808 194.13 119.563 194.174 119.314C194.217 119.066 194.255 118.813 194.286 118.557C194.315 118.301 194.338 118.042 194.353 117.779C194.367 117.516 194.375 117.25 194.375 116.981C194.374 116.713 194.367 116.445 194.353 116.179C194.339 115.913 194.316 115.649 194.286 115.387C194.256 115.125 194.218 114.865 194.174 114.608C194.13 114.35 194.078 114.095 194.018 113.843C193.961 113.599 193.898 113.361 193.829 113.128C193.76 112.899 193.684 112.672 193.602 112.45C193.52 112.227 193.432 112.011 193.339 111.802C193.246 111.593 193.147 111.39 193.042 111.193C192.937 110.997 192.827 110.81 192.714 110.632C192.6 110.455 192.482 110.287 192.361 110.128C192.239 109.969 192.113 109.82 191.983 109.682C191.856 109.546 191.722 109.417 191.582 109.295C191.445 109.176 191.3 109.066 191.148 108.965C191.006 108.87 190.856 108.785 190.702 108.711C190.554 108.64 190.401 108.58 190.244 108.533C190.09 108.487 189.934 108.454 189.775 108.434Z" fill="#0FBFFF"/>
<path d="M189.775 139.238L82.6592 136.672C82.0782 136.658 81.4976 136.717 80.9315 136.849C80.6459 136.915 80.3647 136.999 80.0896 137.101C79.8083 137.205 79.5335 137.325 79.2666 137.462C79.0032 137.597 78.7475 137.747 78.5007 137.91C78.2491 138.077 78.0067 138.257 77.7745 138.449C77.5362 138.647 77.3082 138.857 77.0913 139.078C76.8707 139.303 76.6581 139.542 76.4535 139.795C76.249 140.048 76.0552 140.313 75.8722 140.588C75.6892 140.862 75.5175 141.148 75.3571 141.443C75.1966 141.738 75.0478 142.044 74.9104 142.359C74.7731 142.674 74.6479 142.998 74.5346 143.331C74.4174 143.675 74.3146 144.026 74.2264 144.381C74.1381 144.737 74.0644 145.098 74.0051 145.463C73.9471 145.828 73.9027 146.197 73.8718 146.571C73.841 146.944 73.8256 147.32 73.8256 147.7C73.8268 148.079 73.8422 148.455 73.8718 148.828C73.9015 149.201 73.9459 149.57 74.0051 149.935C74.065 150.298 74.1391 150.657 74.2273 151.012C74.3155 151.367 74.4183 151.717 74.5355 152.061C74.6488 152.395 74.774 152.719 74.9114 153.033C75.0487 153.347 75.1976 153.652 75.358 153.946C75.5185 154.24 75.6902 154.524 75.8731 154.798C76.0558 155.071 76.2496 155.333 76.4545 155.585C76.6593 155.837 76.8719 156.074 77.0922 156.297C77.3091 156.517 77.5371 156.726 77.7754 156.922C78.0076 157.113 78.2501 157.292 78.5016 157.457C78.7484 157.618 79.0042 157.766 79.2676 157.9C79.5344 158.035 79.8093 158.154 80.0905 158.256C80.3657 158.355 80.6469 158.438 80.9324 158.502C81.2151 158.567 81.5015 158.613 81.79 158.641C82.0792 158.669 82.3698 158.678 82.6602 158.669L189.775 155.41C189.933 155.405 190.089 155.387 190.244 155.356C190.4 155.324 190.553 155.28 190.702 155.223C190.856 155.164 191.005 155.094 191.148 155.012C191.299 154.926 191.444 154.83 191.582 154.724C191.722 154.616 191.856 154.5 191.983 154.377C192.116 154.247 192.242 154.111 192.361 153.968C192.482 153.822 192.6 153.665 192.714 153.498C192.828 153.33 192.937 153.154 193.042 152.969C193.147 152.782 193.246 152.589 193.339 152.389C193.433 152.189 193.52 151.982 193.602 151.769C193.684 151.552 193.759 151.331 193.829 151.107C193.898 150.882 193.961 150.65 194.018 150.412C194.079 150.168 194.13 149.92 194.174 149.666C194.217 149.413 194.255 149.157 194.285 148.898C194.315 148.637 194.338 148.375 194.353 148.111C194.367 147.846 194.375 147.58 194.375 147.311C194.374 147.044 194.366 146.778 194.353 146.513C194.339 146.247 194.316 145.985 194.285 145.726C194.256 145.466 194.218 145.21 194.174 144.958C194.13 144.706 194.078 144.456 194.018 144.209C193.961 143.971 193.898 143.739 193.828 143.513C193.759 143.287 193.683 143.068 193.602 142.855C193.521 142.642 193.433 142.436 193.34 142.236C193.246 142.036 193.147 141.844 193.042 141.659C192.937 141.473 192.828 141.297 192.714 141.131C192.601 140.965 192.483 140.809 192.361 140.663C192.242 140.521 192.116 140.385 191.983 140.256C191.857 140.133 191.723 140.018 191.583 139.912C191.445 139.807 191.3 139.712 191.149 139.627C191.005 139.546 190.856 139.477 190.702 139.419C190.553 139.363 190.4 139.32 190.244 139.289C190.089 139.259 189.932 139.242 189.775 139.238Z" fill="#E4E4E4"/>
<path d="M189.775 168.117L82.6592 175.952C82.367 175.974 82.0764 176.013 81.7891 176.07C81.4989 176.128 81.2125 176.204 80.9315 176.297C80.6446 176.391 80.3634 176.503 80.0896 176.63C79.8073 176.762 79.5325 176.909 79.2667 177.072C79.0026 177.232 78.747 177.407 78.5007 177.594C78.2514 177.784 78.0093 177.987 77.7745 178.203C77.5397 178.42 77.312 178.652 77.0913 178.898C76.8707 179.144 76.6581 179.403 76.4535 179.676C76.249 179.95 76.0552 180.233 75.8722 180.526C75.6892 180.819 75.5175 181.12 75.3571 181.431C75.1966 181.742 75.0478 182.062 74.9105 182.39C74.7731 182.719 74.6479 183.055 74.5346 183.399C74.4174 183.754 74.3146 184.115 74.2264 184.48C74.1381 184.845 74.0644 185.213 74.0051 185.583C73.9471 185.954 73.9027 186.327 73.8719 186.704C73.841 187.08 73.8256 187.458 73.8256 187.837C73.8268 188.216 73.8422 188.591 73.8719 188.961C73.9015 189.331 73.9459 189.696 74.0051 190.055C74.065 190.415 74.1391 190.768 74.2273 191.114C74.3155 191.46 74.4183 191.8 74.5355 192.133C74.6488 192.454 74.7741 192.765 74.9114 193.066C75.0487 193.367 75.1976 193.656 75.358 193.935C75.5185 194.214 75.6902 194.481 75.8731 194.737C76.0543 194.991 76.2483 195.236 76.4545 195.47C76.6553 195.697 76.8682 195.913 77.0923 196.118C77.3092 196.316 77.5373 196.503 77.7754 196.675C78.0081 196.844 78.2506 196.998 78.5016 197.138C78.7492 197.277 79.005 197.401 79.2676 197.509C79.5356 197.619 79.8105 197.712 80.0905 197.786C80.3672 197.86 80.6485 197.915 80.9324 197.951C81.2168 197.988 81.5033 198.006 81.79 198.005C82.081 198.005 82.3716 197.986 82.6602 197.949L189.775 184.294C189.934 184.273 190.09 184.24 190.244 184.194C190.401 184.147 190.554 184.087 190.702 184.016C190.856 183.942 191.006 183.857 191.148 183.762C191.3 183.661 191.445 183.551 191.582 183.432C191.722 183.31 191.856 183.182 191.983 183.046C192.111 182.907 192.237 182.758 192.361 182.6C192.482 182.441 192.6 182.273 192.714 182.095C192.828 181.917 192.937 181.73 193.042 181.534C193.147 181.339 193.246 181.136 193.339 180.926C193.433 180.715 193.52 180.499 193.602 180.278C193.684 180.055 193.759 179.828 193.829 179.595C193.898 179.362 193.961 179.124 194.018 178.88C194.079 178.628 194.13 178.373 194.174 178.115C194.217 177.857 194.255 177.597 194.286 177.335C194.315 177.073 194.338 176.809 194.353 176.543C194.367 176.277 194.375 176.01 194.375 175.741C194.374 175.474 194.366 175.209 194.352 174.946C194.338 174.683 194.316 174.423 194.285 174.167C194.255 173.91 194.218 173.657 194.174 173.409C194.13 173.16 194.078 172.915 194.018 172.675C193.961 172.443 193.898 172.217 193.829 171.999C193.76 171.78 193.685 171.568 193.602 171.363C193.52 171.157 193.432 170.96 193.34 170.769C193.246 170.58 193.146 170.398 193.041 170.222C192.936 170.046 192.826 169.881 192.713 169.727C192.603 169.576 192.485 169.432 192.36 169.293C192.241 169.163 192.115 169.039 191.982 168.923C191.855 168.813 191.721 168.711 191.581 168.618C191.443 168.526 191.298 168.445 191.147 168.375C191.003 168.307 190.854 168.252 190.701 168.21C190.4 168.126 190.087 168.095 189.775 168.117" fill="#E4E4E4"/>
<path d="M131.391 169.553C132.07 170.681 133.139 171.521 134.396 171.913C135.653 172.305 137.009 172.221 138.209 171.679C139.408 171.136 140.367 170.172 140.902 168.969C141.438 167.766 141.513 166.408 141.114 165.154L161.874 122.498L151.937 116.473L134.008 161.782C133.939 161.809 133.872 161.837 133.805 161.866C133.739 161.895 133.673 161.926 133.607 161.957C133.541 161.989 133.475 162.023 133.41 162.058C133.346 162.093 133.281 162.13 133.217 162.168C131.996 162.905 131.118 164.097 130.775 165.482C130.433 166.867 130.654 168.331 131.391 169.552L131.391 169.553Z" fill="#9E616A"/>
<path d="M157.911 138.946L143.163 135.165C143.163 135.165 143.644 134.077 144.427 132.273C145.21 130.47 146.303 127.955 147.533 125.099C148.763 122.244 150.128 119.053 151.461 115.899C152.794 112.746 154.09 109.63 155.182 106.929C156.274 104.228 157.514 102.611 158.761 101.704C159.792 100.92 161.092 100.574 162.377 100.743C163.375 100.891 164.33 101.255 165.175 101.808C165.575 102.057 165.951 102.342 166.298 102.66L169.718 108.88L157.911 138.946Z" fill="#CCCCCC"/>
<path d="M39.8817 135.568C39.5245 135.594 39.1691 135.641 38.8172 135.707C38.4629 135.773 38.1126 135.859 37.7679 135.964C37.4179 136.071 37.074 136.197 36.7376 136.341C36.3934 136.488 36.057 136.654 35.73 136.836C35.4101 137.016 35.0973 137.212 34.7919 137.423C34.4864 137.635 34.1897 137.862 33.9018 138.105C33.6143 138.347 33.3352 138.605 33.0646 138.879C32.794 139.154 32.5332 139.443 32.2824 139.747C32.0315 140.052 31.7938 140.367 31.5691 140.693C31.3445 141.019 31.1338 141.355 30.9369 141.701C30.7419 142.048 30.5595 142.404 30.3898 142.769C30.2201 143.135 30.0658 143.508 29.927 143.891C29.7823 144.287 29.6556 144.688 29.547 145.093C29.4384 145.498 29.3478 145.906 29.2753 146.318C29.2025 146.729 29.1479 147.144 29.1115 147.561C29.0751 147.978 29.0569 148.397 29.0569 148.818C29.0569 149.239 29.0751 149.654 29.1115 150.064C29.1479 150.473 29.2025 150.877 29.2753 151.274C29.3478 151.671 29.4384 152.061 29.547 152.444C29.6556 152.827 29.7818 153.202 29.9256 153.57C30.0657 153.924 30.22 154.267 30.3884 154.599C30.555 154.927 30.7379 155.246 30.9364 155.556C31.1319 155.86 31.3429 156.153 31.5687 156.435C31.7923 156.716 32.0305 156.984 32.2824 157.239C32.5301 157.49 32.7912 157.728 33.0646 157.95C33.3323 158.169 33.6119 158.371 33.9023 158.558C34.4753 158.927 35.0887 159.229 35.7305 159.458C36.3884 159.693 37.0721 159.849 37.767 159.921C38.1155 159.957 38.4659 159.972 38.8162 159.967C39.1722 159.962 39.5276 159.937 39.8807 159.892C40.2371 159.846 40.5906 159.781 40.9397 159.697C41.2899 159.612 41.6352 159.509 41.9741 159.386C42.3169 159.263 42.653 159.121 42.9808 158.962C43.3149 158.8 43.6405 158.621 43.9565 158.426C44.2641 158.234 44.5637 158.028 44.8553 157.808C45.1469 157.589 45.4294 157.354 45.7028 157.106C45.9761 156.857 46.2401 156.595 46.4947 156.319C46.7492 156.043 46.9939 155.753 47.2287 155.45C47.4651 155.148 47.6875 154.836 47.8961 154.515C48.1047 154.194 48.3 153.864 48.4821 153.527C48.6642 153.189 48.8326 152.843 48.9875 152.489C49.1424 152.136 49.2836 151.774 49.411 151.406C49.5431 151.025 49.6586 150.64 49.7577 150.252C49.8567 149.864 49.9394 149.473 50.0058 149.08C50.0718 148.686 50.1215 148.29 50.1548 147.893C50.1881 147.495 50.2048 147.095 50.2048 146.694C50.2045 146.293 50.1878 145.897 50.1548 145.505C50.1218 145.114 50.0721 144.728 50.0058 144.348C49.9397 143.969 49.857 143.595 49.7577 143.226C49.6583 142.858 49.5428 142.496 49.411 142.142C49.283 141.798 49.1418 141.466 48.9875 141.143C48.8311 140.821 48.6618 140.509 48.4798 140.207C48.1194 139.609 47.7003 139.049 47.2287 138.535C46.9973 138.282 46.7529 138.041 46.4965 137.813C46.244 137.589 45.9797 137.38 45.7046 137.185C45.4322 136.992 45.1493 136.814 44.8572 136.652C44.5653 136.49 44.2646 136.345 43.9565 136.217C43.3204 135.952 42.6551 135.763 41.9746 135.654C41.6321 135.6 41.2867 135.565 40.9402 135.551C40.5872 135.537 40.2336 135.543 39.8812 135.569" fill="#E4E4E4"/>
<path d="M39.8817 179.081C39.5245 179.107 39.1691 179.153 38.8172 179.219C38.4629 179.286 38.1126 179.372 37.7679 179.477C37.4179 179.584 37.074 179.709 36.7376 179.854C36.3934 180.001 36.057 180.166 35.73 180.349C35.4101 180.529 35.0973 180.724 34.7919 180.936C34.4864 181.147 34.1897 181.374 33.9018 181.617C33.6143 181.859 33.3352 182.118 33.0646 182.392C32.794 182.666 32.5332 182.956 32.2824 183.26C32.0315 183.564 31.7938 183.88 31.5691 184.206C31.3445 184.532 31.1338 184.868 30.9369 185.214C30.7419 185.561 30.5595 185.916 30.3898 186.282C30.2201 186.647 30.0658 187.021 29.927 187.403C29.7823 187.8 29.6556 188.201 29.547 188.606C29.4384 189.01 29.3478 189.419 29.2753 189.83C29.2025 190.242 29.1479 190.657 29.1115 191.074C29.0751 191.491 29.0569 191.91 29.0569 192.331C29.0569 192.751 29.0751 193.166 29.1115 193.576C29.1479 193.986 29.2025 194.39 29.2753 194.787C29.3478 195.184 29.4384 195.574 29.547 195.957C29.6556 196.34 29.7818 196.715 29.9256 197.082C30.0657 197.437 30.22 197.78 30.3884 198.111C30.555 198.439 30.7379 198.759 30.9364 199.069C31.1319 199.372 31.3429 199.666 31.5687 199.948C31.7923 200.228 32.0305 200.497 32.2824 200.752C32.5301 201.003 32.7912 201.24 33.0646 201.463C33.3323 201.681 33.6119 201.884 33.9023 202.071C34.4753 202.44 35.0887 202.742 35.7305 202.971C36.3884 203.206 37.0721 203.361 37.767 203.434C38.1155 203.47 38.4659 203.485 38.8162 203.48C39.1722 203.475 39.5276 203.45 39.8807 203.405C40.2371 203.359 40.5906 203.294 40.9397 203.21C41.2899 203.125 41.6352 203.021 41.9741 202.899C42.3169 202.775 42.653 202.634 42.9808 202.475C43.3149 202.313 43.6405 202.134 43.9565 201.939C44.2641 201.747 44.5637 201.541 44.8553 201.321C45.1469 201.101 45.4294 200.867 45.7028 200.618C45.9761 200.37 46.2401 200.107 46.4947 199.831C46.7492 199.556 46.9939 199.266 47.2287 198.963C47.4651 198.66 47.6875 198.348 47.8961 198.028C48.1047 197.707 48.3 197.377 48.4821 197.039C48.6642 196.701 48.8326 196.356 48.9875 196.002C49.1424 195.648 49.2836 195.287 49.411 194.919C49.5431 194.537 49.6586 194.153 49.7577 193.765C49.8567 193.377 49.9394 192.986 50.0058 192.593C50.0718 192.199 50.1215 191.803 50.1548 191.405C50.1881 191.007 50.2048 190.608 50.2048 190.207C50.2045 189.806 50.1878 189.409 50.1548 189.018C50.1218 188.627 50.0721 188.241 50.0058 187.861C49.9397 187.481 49.857 187.107 49.7577 186.739C49.6583 186.37 49.5428 186.009 49.411 185.654C49.283 185.311 49.1418 184.978 48.9875 184.656C48.8311 184.334 48.6618 184.022 48.4798 183.72C48.1194 183.122 47.7003 182.562 47.2287 182.047C46.9973 181.794 46.7529 181.553 46.4965 181.326C46.244 181.102 45.9797 180.892 45.7046 180.697C45.4322 180.504 45.1493 180.326 44.8572 180.165C44.5653 180.003 44.2646 179.858 43.9565 179.729C43.3204 179.465 42.6551 179.276 41.9746 179.167C41.6321 179.112 41.2867 179.078 40.9402 179.064C40.5872 179.05 40.2336 179.055 39.8812 179.081" fill="#E4E4E4"/>
<path d="M39.8835 88.4298C39.5283 88.4211 39.1729 88.4327 38.819 88.4645C38.4666 88.4962 38.1163 88.5481 37.7698 88.62C37.4213 88.6928 37.0773 88.7856 36.7395 88.8978C36.3965 89.0113 36.0601 89.1441 35.7319 89.2954C35.4107 89.4434 35.0975 89.6082 34.7937 89.7893C34.4869 89.9722 34.1899 90.1708 33.9037 90.3846C33.6129 90.6017 33.3333 90.8335 33.066 91.0789C32.7941 91.3286 32.5329 91.5932 32.2824 91.8728C32.0315 92.1527 31.7938 92.445 31.5692 92.7495C31.3445 93.0541 31.1338 93.3698 30.9369 93.6966C30.741 94.0278 30.5582 94.3671 30.3885 94.7145C30.2188 95.062 30.0645 95.4209 29.9256 95.7912C29.7818 96.173 29.6556 96.561 29.547 96.9554C29.4384 97.3498 29.3478 97.7493 29.2753 98.1539C29.2025 98.5597 29.1479 98.9689 29.1115 99.3815C29.0751 99.7941 29.0569 100.211 29.0569 100.631C29.0569 101.051 29.0751 101.468 29.1115 101.881C29.1479 102.294 29.2025 102.703 29.2753 103.107C29.3478 103.512 29.4384 103.911 29.547 104.304C29.6556 104.697 29.7818 105.085 29.9256 105.466C30.0657 105.834 30.22 106.192 30.3885 106.54C30.5582 106.886 30.7414 107.223 30.9383 107.548C31.1351 107.874 31.3459 108.189 31.5705 108.491C31.7948 108.795 32.0326 109.086 32.2838 109.363C32.5349 109.641 32.7957 109.904 33.0659 110.15C33.3319 110.395 33.6101 110.626 33.8995 110.842C34.1857 111.054 34.4828 111.251 34.7895 111.431C35.0934 111.61 35.4066 111.773 35.7277 111.919C36.056 112.068 36.3924 112.199 36.7353 112.31C37.4102 112.529 38.1079 112.669 38.8148 112.727C39.5227 112.786 40.2349 112.764 40.9379 112.663C41.2864 112.612 41.6318 112.542 41.9723 112.452C42.3137 112.362 42.6498 112.253 42.979 112.126C43.312 111.996 43.6377 111.849 43.9546 111.684C44.2637 111.524 44.5643 111.348 44.8553 111.156C45.148 110.964 45.4308 110.757 45.7028 110.536C45.9761 110.313 46.2401 110.077 46.4947 109.825C46.7492 109.574 46.9939 109.309 47.2287 109.028C47.4651 108.748 47.6876 108.458 47.8961 108.157C48.1047 107.857 48.3 107.546 48.4821 107.226C48.6648 106.905 48.8332 106.576 48.9875 106.238C49.1418 105.899 49.283 105.552 49.411 105.197C49.5431 104.829 49.6586 104.456 49.7577 104.077C49.8567 103.699 49.9394 103.316 50.0058 102.929C50.0718 102.541 50.1215 102.149 50.1548 101.754C50.1881 101.36 50.2048 100.962 50.2048 100.561C50.2045 100.16 50.1878 99.7619 50.1548 99.3672C50.1218 98.9725 50.0721 98.5819 50.0058 98.1956C49.9397 97.8089 49.857 97.4265 49.7577 97.0485C49.6583 96.6704 49.5428 96.2977 49.411 95.9301C49.283 95.5749 49.1418 95.2285 48.9875 94.8909C48.8332 94.5533 48.664 94.2245 48.4798 93.9045C48.2977 93.5872 48.1024 93.2786 47.8938 92.9787C47.6852 92.6787 47.4635 92.3898 47.2287 92.1121C46.9955 91.8347 46.7514 91.571 46.4965 91.321C46.2416 91.071 45.9777 90.836 45.7046 90.616C45.4328 90.3963 45.1502 90.1905 44.8576 89.9994C44.5666 89.8099 44.2659 89.6354 43.9569 89.4768C43.6399 89.314 43.3142 89.1687 42.9813 89.0417C42.652 88.9161 42.3159 88.8091 41.9746 88.7214C41.634 88.6339 41.2886 88.5659 40.9402 88.5177C40.5891 88.4693 40.2355 88.4409 39.8812 88.4325L39.8835 88.4298ZM39.8812 87.2743C41.436 87.3169 42.9609 87.7116 44.3411 88.4288C45.7127 89.1461 46.9284 90.1284 47.9179 91.3187C48.9522 92.5592 49.7577 93.9738 50.2969 95.4964C51.4515 98.7736 51.4515 102.347 50.2969 105.624C49.7572 107.151 48.9518 108.571 47.9179 109.817C46.9283 111.013 45.7127 112.002 44.3406 112.728C42.9622 113.454 41.4376 113.859 39.8807 113.912C38.3143 113.963 36.7571 113.653 35.3301 113.005C33.8896 112.345 32.6008 111.394 31.5446 110.213C30.423 108.962 29.5452 107.512 28.9564 105.939C27.6812 102.513 27.6812 98.7422 28.9564 95.3163C29.5458 93.7379 30.4234 92.2828 31.5446 91.0252C32.6005 89.8373 33.8889 88.8787 35.3301 88.2089C36.756 87.5516 38.314 87.2312 39.8835 87.2725L39.8812 87.2743Z" fill="#0FBFFF"/>
<path d="M39.8826 103.867L36.2368 96.2709L37.1023 95.707L40.1052 101.947L52.7138 87.1253L53.477 87.9387L39.8826 103.867Z" fill="#0FBFFF"/>
<path d="M172.567 253.836L163.541 253.801L166.452 277.387L172.567 277.418V253.836Z" fill="#9E616A"/>
<path d="M174.126 283.353L154.419 283.248V282.999C154.419 282.494 154.468 281.989 154.566 281.493C154.76 280.514 155.146 279.583 155.703 278.755C156.268 277.915 156.992 277.194 157.834 276.634C158.665 276.081 159.597 275.699 160.577 275.509C161.074 275.414 161.579 275.367 162.085 275.37L174.126 275.43V283.353Z" fill="#2F2E41"/>
<path d="M143.668 253.724L134.669 253.689L137.57 277.243L143.668 277.274V253.724Z" fill="#9E616A"/>
<path d="M145.224 283.199L125.569 283.096V282.847C125.569 282.342 125.618 281.838 125.716 281.343C125.909 280.365 126.294 279.436 126.849 278.608C127.412 277.77 128.135 277.05 128.975 276.489C129.804 275.938 130.734 275.556 131.711 275.368C132.207 275.272 132.711 275.226 133.215 275.229L145.224 275.288V283.199Z" fill="#2F2E41"/>
<path d="M143.286 157.321L128.153 213.805L133.692 267.95L145.957 268.288L143.287 219.399L158.588 195.001L161.906 268.621L173.032 267.834L179.221 204.536C181.323 199.593 182.864 194.431 183.817 189.145C184.565 184.996 184.929 180.786 184.904 176.57C184.891 173.732 184.673 170.898 184.251 168.091C184.101 167.045 183.896 166.008 183.64 164.982L179.128 160.408L143.286 157.321Z" fill="#2F2E41"/>
<path d="M163.337 166.768C160.792 166.768 158.404 166.687 156.238 166.525C154.026 166.374 151.826 166.084 149.65 165.658C147.798 165.312 145.994 164.744 144.277 163.966C142.895 163.369 141.693 162.421 140.792 161.215L140.688 161.065L144.825 134.142L149.285 103.869C149.579 101.866 150.599 100.041 152.151 98.7406C153.703 97.4406 155.679 96.7568 157.702 96.8193L171.672 97.2474C172.72 97.2795 173.75 97.5217 174.702 97.9595C175.655 98.3973 176.509 99.0219 177.216 99.7963C177.922 100.571 178.466 101.479 178.815 102.467C179.164 103.456 179.311 104.504 179.247 105.55L177.413 135.657L184.178 165.353L183.699 165.42C183.506 165.446 182.764 165.544 181.601 165.674C180.081 165.845 178.529 165.999 176.988 166.132C174.808 166.32 172.675 166.468 170.647 166.572C168.076 166.703 165.612 166.766 163.337 166.768Z" fill="#CCCCCC"/>
<path d="M155.585 91.4696C155.581 91.4696 155.577 91.4696 155.573 91.4696C155.28 91.4694 154.99 91.4115 154.719 91.2992C154.449 91.1868 154.203 91.0223 153.996 90.8149C153.789 90.6075 153.624 90.3613 153.512 90.0904C153.4 89.8195 153.343 89.5292 153.343 89.2361V76.7795C153.341 74.5477 153.787 72.3383 154.656 70.2827C156.357 66.2711 159.54 63.0708 163.543 61.3487C166.074 60.2629 168.835 59.8218 171.578 60.0651C174.321 60.3083 176.962 61.2282 179.262 62.7425C181.563 64.2567 183.453 66.3179 184.761 68.7416C186.07 71.1654 186.757 73.8759 186.762 76.6304V89.1061C186.762 89.4063 186.702 89.7035 186.585 89.98C186.355 90.5194 185.927 90.9493 185.388 91.1799C185.111 91.2979 184.814 91.3591 184.514 91.3599L155.583 91.4696H155.585Z" fill="#2F2E41"/>
<path d="M177.597 72.5073C178.762 74.6361 179.271 77.0626 179.058 79.4802C178.846 81.8978 177.921 84.1982 176.402 86.0908C174.883 87.9834 172.838 89.3833 170.523 90.1138C168.209 90.8442 165.731 90.8724 163.401 90.1948C161.858 89.7514 160.418 89.0061 159.165 88.0022C157.912 86.9983 156.871 85.7558 156.102 84.3465C154.939 82.2187 154.432 79.7942 154.646 77.3788C154.859 74.9633 155.782 72.6651 157.3 70.7739C158.817 68.8827 160.86 67.4831 163.172 66.7516C165.483 66.0202 167.96 65.9896 170.288 66.6637C171.833 67.1055 173.274 67.8496 174.529 68.8528C175.783 69.856 176.826 71.0984 177.597 72.5078V72.5073Z" fill="#9E616A"/>
<path d="M149.393 77.7932C149.391 76.0282 149.744 74.2809 150.431 72.6551C151.776 69.4829 154.294 66.9524 157.459 65.5912C159.082 64.8954 160.83 64.5333 162.596 64.5265L165.089 64.514C165.117 64.5139 165.145 64.5138 165.173 64.5138C166.899 64.5149 168.608 64.856 170.203 65.5176C171.797 66.1792 173.245 67.1485 174.465 68.37C175.685 69.5915 176.652 71.0414 177.312 72.6368C177.972 74.2321 178.31 75.9419 178.309 77.6683V77.9178L173.036 77.9391L171.238 72.9147L170.878 77.9488L168.154 77.9608L167.248 75.426L167.066 77.964L149.395 78.0432L149.393 77.7932Z" fill="#2F2E41"/>
<path d="M128.162 103.998C127.351 104.197 126.592 104.569 125.938 105.088C125.427 105.493 124.99 105.983 124.646 106.537C123.969 107.633 123.67 108.922 123.797 110.204C123.861 110.852 124.036 111.484 124.316 112.072C124.661 112.805 125.157 113.456 125.773 113.982C126.388 114.509 127.107 114.899 127.884 115.127C128.661 115.355 129.478 115.415 130.28 115.305C131.082 115.194 131.851 114.914 132.537 114.484C132.588 114.451 132.638 114.418 132.687 114.384C132.737 114.351 132.786 114.316 132.833 114.281C132.881 114.246 132.929 114.211 132.975 114.174C133.022 114.138 133.068 114.102 133.113 114.064L162.213 124.423C163.109 124.741 164.083 124.76 164.99 124.477C165.897 124.193 166.688 123.623 167.243 122.852L174.142 113.298L165.801 107.681L161.424 112.654L134.793 107.355C134.764 107.286 134.734 107.218 134.702 107.149C134.671 107.081 134.639 107.013 134.605 106.945C134.57 106.878 134.535 106.811 134.499 106.744C134.462 106.677 134.423 106.611 134.383 106.545C133.747 105.518 132.803 104.719 131.686 104.261C130.569 103.804 129.335 103.712 128.162 103.998Z" fill="#9E616A"/>
<path d="M161.893 109.518C162.764 108.431 163.981 107.02 165.217 105.621C166.454 104.222 167.709 102.835 168.655 101.798C169.602 100.76 170.239 100.073 170.239 100.073C171.113 98.7515 172.417 97.7735 173.93 97.3048C175.443 96.8361 177.071 96.9057 178.539 97.5017C180.006 98.0977 181.222 99.1834 181.98 100.574C182.738 101.965 182.991 103.576 182.696 105.132C182.528 106.028 182.18 106.881 181.673 107.639C181.673 107.639 180.724 108.881 179.291 110.736C177.858 112.59 175.941 115.059 174.007 117.514C172.073 119.968 170.12 122.41 168.614 124.212C167.108 126.014 166.049 127.179 165.899 127.079L160.647 111.464C160.498 111.364 161.023 110.604 161.893 109.518Z" fill="#CCCCCC"/>
<path d="M165.011 91.0771C164.928 91.4798 164.96 91.8976 165.103 92.2829C165.175 92.4802 165.274 92.6664 165.398 92.8361C165.503 92.9807 165.626 93.1123 165.762 93.2282C166.167 93.5702 166.68 93.7568 167.21 93.7545C167.243 93.7542 167.276 93.7533 167.309 93.7517C167.342 93.7502 167.375 93.7479 167.408 93.7448C167.442 93.742 167.475 93.7383 167.508 93.7337C167.541 93.729 167.574 93.7238 167.607 93.7179L169.479 93.3777L172.057 87.8692V92.9148L180.567 91.3826V69.9711L166.301 70.0396L166.653 70.4493C167.824 71.8239 168.593 73.4949 168.875 75.2783C169.152 77.0846 169.117 78.9251 168.772 80.7197C168.437 82.5356 167.928 84.3151 167.253 86.0338C166.663 87.5563 165.985 89.0436 165.224 90.4883C165.126 90.6736 165.054 90.8718 165.011 91.0771Z" fill="#2F2E41"/>
<path d="M66.1967 284H242.537C242.66 284 242.778 283.951 242.864 283.864C242.951 283.778 243 283.66 243 283.537C243 283.414 242.951 283.297 242.864 283.21C242.778 283.123 242.66 283.074 242.537 283.074H66.1967C66.074 283.074 65.9562 283.123 65.8694 283.21C65.7826 283.297 65.7339 283.414 65.7339 283.537C65.7339 283.66 65.7826 283.778 65.8694 283.864C65.9562 283.951 66.074 284 66.1967 284Z" fill="#CACACA"/>
</svg>
