<svg width="273" height="284" viewBox="0 0 273 284" fill="none" xmlns="http://www.w3.org/2000/svg">
<path fill-rule="evenodd" clip-rule="evenodd" d="M155 236C220.17 236 273 183.17 273 118C273 52.8304 220.17 0 155 0C89.8304 0 37 52.8304 37 118C37 128.846 38.4632 139.35 41.2031 149.325C18.2417 158.409 2 180.808 2 207C2 241.242 29.7583 269 64 269C89.7041 269 111.755 253.358 121.153 231.074C131.874 234.279 143.236 236 155 236Z" fill="#43C7FF" fill-opacity="0.2"/>
<g clip-path="url(#clip0_719_1650)">
<path d="M141.731 126.678C141.513 126.897 141.313 127.132 141.132 127.383L113.436 126.406L110.268 120.48L100.677 124.08L105.263 135.118C105.633 136.01 106.284 136.757 107.116 137.249C107.949 137.74 108.919 137.949 109.88 137.844L141.222 134.411C141.95 135.352 142.948 136.049 144.084 136.411C145.219 136.772 146.438 136.779 147.578 136.433C148.718 136.086 149.725 135.401 150.465 134.47C151.205 133.538 151.644 132.404 151.722 131.217C151.8 130.031 151.514 128.849 150.902 127.829C150.291 126.809 149.382 125.998 148.297 125.506C147.213 125.013 146.004 124.862 144.831 125.072C143.658 125.282 142.577 125.843 141.731 126.681V126.678Z" fill="#A0616A"/>
<path d="M88.6908 97.8781C97.6225 97.8781 104.863 90.6549 104.863 81.7446C104.863 72.8342 97.6225 65.611 88.6908 65.611C79.759 65.611 72.5184 72.8342 72.5184 81.7446C72.5184 90.6549 79.759 97.8781 88.6908 97.8781Z" fill="#2F2E41"/>
<path d="M76.0674 73.0458C78.6808 70.4386 79.2105 66.74 77.2504 64.7847C75.2904 62.8293 71.5829 63.3577 68.9695 65.9648C66.3561 68.572 65.8265 72.2706 67.7865 74.2259C69.7466 76.1813 73.454 75.6529 76.0674 73.0458Z" fill="#2F2E41"/>
<path d="M105.547 67.9223C106.635 65.3793 104.763 62.1437 101.364 60.6954C97.9653 59.247 94.3273 60.1343 93.2384 62.6773C92.1496 65.2203 94.0221 68.4559 97.4209 69.9043C100.82 71.3526 104.458 70.4653 105.547 67.9223Z" fill="#2F2E41"/>
<path d="M112.221 125.307L99.8101 130.844C99.4569 131.001 99.074 131.081 98.6872 131.077C98.3004 131.074 97.9189 130.987 97.5686 130.823C97.2184 130.66 96.9077 130.422 96.6576 130.128C96.4075 129.834 96.224 129.489 96.1195 129.117L92.4597 116.098C91.6642 114.292 91.6187 112.244 92.3333 110.404C93.0479 108.564 94.4643 107.082 96.2724 106.282C98.0804 105.482 100.133 105.429 101.979 106.135C103.826 106.841 105.318 108.249 106.126 110.05L113.392 121.412C113.6 121.738 113.735 122.104 113.788 122.486C113.841 122.868 113.811 123.258 113.7 123.627C113.589 123.997 113.399 124.338 113.144 124.628C112.889 124.918 112.574 125.15 112.221 125.307H112.221Z" fill="#CCCCCC"/>
<path d="M54.9035 179.779C55.7583 179.581 56.5593 179.199 57.2499 178.658C57.9405 178.118 58.504 177.433 58.9006 176.652C59.2973 175.871 59.5174 175.013 59.5456 174.138C59.5738 173.263 59.4092 172.392 59.0637 171.587L81.1944 121.708L68.5345 118.527L50.7615 168.557C49.4448 169.226 48.4197 170.353 47.8805 171.726C47.3412 173.098 47.3254 174.62 47.836 176.004C48.3465 177.387 49.348 178.535 50.6505 179.231C51.9531 179.927 53.4663 180.122 54.9035 179.779Z" fill="#A0616A"/>
<path d="M48.8708 270.19L55.3085 272.528L67.4132 248.87L57.9115 245.419L48.8708 270.19Z" fill="#A0616A"/>
<path d="M65.5472 283.001L45.3147 275.652L48.1609 267.854L60.5764 272.363C62.6496 273.117 64.338 274.66 65.2702 276.655C66.2025 278.65 66.3021 280.933 65.5473 283.001L65.5472 283.001Z" fill="#2F2E41"/>
<path d="M64.0979 256.575C63.7029 256.575 63.3128 256.488 62.9558 256.319L55.5574 252.823C54.9508 252.539 54.4729 252.039 54.2176 251.421C53.9622 250.803 53.9481 250.112 54.1779 249.484L75.0577 191.802C75.2306 191.325 75.5358 190.906 75.9378 190.594C76.3398 190.282 76.8222 190.091 77.329 190.042C77.8357 189.993 78.346 190.088 78.8007 190.316C79.2553 190.545 79.6356 190.898 79.8975 191.333L90.9412 209.695C91.1869 210.104 91.3191 210.571 91.3242 211.048C91.3293 211.525 91.2071 211.995 90.9702 212.409L66.4451 255.225C66.2074 255.636 65.8653 255.977 65.4532 256.214C65.0411 256.451 64.5736 256.576 64.0979 256.575Z" fill="#2F2E41"/>
<path d="M89.2037 99.2884C96.7839 99.2884 102.929 93.1581 102.929 85.596C102.929 78.0339 96.7839 71.9036 89.2037 71.9036C81.6234 71.9036 75.4784 78.0339 75.4784 85.596C75.4784 93.1581 81.6234 99.2884 89.2037 99.2884Z" fill="#A0616A"/>
<path d="M108.621 147.85L84.319 141.183L71.3936 115.394C70.7727 114.155 70.4795 112.779 70.5419 111.395C70.6043 110.011 71.0203 108.666 71.7502 107.488C72.4802 106.31 73.5 105.337 74.7127 104.663C75.9254 103.988 77.2909 103.634 78.6793 103.634H98.0143C100.021 103.633 101.958 104.372 103.452 105.709C108.638 110.344 119.535 123.707 108.726 147.617L108.621 147.85Z" fill="#CCCCCC"/>
<path d="M78.1986 130.629L65.8858 124.879C65.5355 124.716 65.2246 124.479 64.9743 124.184C64.7241 123.89 64.5404 123.545 64.4357 123.174C64.331 122.802 64.3078 122.413 64.3676 122.032C64.4275 121.65 64.569 121.286 64.7825 120.965L72.2654 109.691C73.1153 107.909 74.6387 106.535 76.5018 105.871C78.3649 105.208 80.4158 105.308 82.2051 106.15C83.9944 106.992 85.3762 108.507 86.0477 110.363C86.7193 112.22 86.6258 114.266 85.7878 116.054L81.9185 128.967C81.8076 129.336 81.6182 129.678 81.363 129.968C81.1079 130.258 80.7931 130.49 80.4401 130.647C80.0871 130.805 79.7041 130.885 79.3173 130.882C78.9305 130.879 78.549 130.792 78.1986 130.629H78.1986Z" fill="#CCCCCC"/>
<path d="M93.095 276.655H99.9462L103.206 250.292L93.0939 250.293L93.095 276.655Z" fill="#A0616A"/>
<path d="M113.159 283L91.6274 283.001L91.627 274.702L104.84 274.701C107.046 274.701 109.162 275.576 110.722 277.132C112.283 278.688 113.159 280.799 113.159 283Z" fill="#2F2E41"/>
<path d="M95.6822 266.609C95.0662 266.61 94.4687 266.399 93.9905 266.011C93.5123 265.624 93.1826 265.084 93.057 264.482C91.0877 255.226 80.86 207.813 72.8772 183.391C64.7552 158.544 78.5875 147.226 81.4428 145.21C81.7469 144.996 81.9885 144.705 82.1429 144.367L84.2173 139.814C84.4324 139.344 84.7784 138.946 85.2141 138.667C85.6497 138.387 86.1567 138.239 86.6746 138.239H86.6914C102.243 138.331 107.471 143.222 108.996 145.32C109.222 145.633 109.376 145.991 109.449 146.368C109.521 146.746 109.511 147.136 109.418 147.509L99.578 188.007C99.517 188.259 99.5032 188.519 99.5373 188.775L109.327 262.307C109.374 262.66 109.35 263.02 109.256 263.364C109.163 263.708 109.001 264.03 108.782 264.311C108.562 264.592 108.289 264.827 107.977 265.002C107.665 265.177 107.322 265.288 106.967 265.329L95.9982 266.591C95.8933 266.603 95.7878 266.609 95.6822 266.609Z" fill="#2F2E41"/>
<path d="M74.7816 76.9835C77.918 79.1401 81.6407 80.2878 85.4499 80.2726C84.0912 81.2125 82.5443 81.8474 80.9159 82.1335C85.9805 83.2173 91.2148 83.2466 96.2913 82.2197C97.4198 82.0392 98.5086 81.6661 99.51 81.1168C100.009 80.8388 100.444 80.4591 100.786 80.0024C101.128 79.5457 101.371 79.0223 101.497 78.4662C101.834 76.5437 100.332 74.797 98.7719 73.6199C96.3827 71.8451 93.6278 70.6224 90.7067 70.04C87.7856 69.4577 84.7713 69.5304 81.8818 70.2529C79.9951 70.7394 78.105 71.5614 76.8795 73.073C75.654 74.5846 75.291 76.9149 76.4586 78.4714L74.7816 76.9835Z" fill="#2F2E41"/>
<path d="M235.888 231.212V283.466L222.301 283.075H152.788V240.445L173.071 231.212H235.888Z" fill="#CCCCCC"/>
<path opacity="0.1" d="M235.888 231.212V231.375L231.01 234.632L222.301 240.445H152.788L173.071 231.212H235.888Z" fill="black"/>
<path opacity="0.1" d="M235.888 231.212V283.466L222.301 283.075L222.399 240.347L231.01 234.632L235.81 231.212H235.888Z" fill="black"/>
<path d="M217.575 236.811H175.237L178.388 235.043H218.953L217.575 236.811Z" fill="white"/>
<path d="M265.441 284H0.558824C0.410614 284 0.268483 283.941 0.163684 283.837C0.058884 283.732 0 283.59 0 283.443C0 283.295 0.058884 283.153 0.163684 283.048C0.268483 282.944 0.410614 282.885 0.558824 282.885H265.441C265.589 282.885 265.732 282.944 265.836 283.048C265.941 283.153 266 283.295 266 283.443C266 283.59 265.941 283.732 265.836 283.837C265.732 283.941 265.589 284 265.441 284Z" fill="#E6E6E6"/>
<path d="M195.063 136.17H149.239C147.906 136.168 146.627 135.639 145.684 134.699C144.741 133.758 144.211 132.483 144.21 131.152V81.5364C144.211 80.2062 144.741 78.9308 145.684 77.9902C146.627 77.0496 147.906 76.5205 149.239 76.519H195.063C196.396 76.5205 197.674 77.0496 198.617 77.9902C199.56 78.9308 200.09 80.2062 200.092 81.5364V131.152C200.09 132.483 199.56 133.758 198.617 134.699C197.674 135.639 196.396 136.168 195.063 136.17ZM149.239 77.634C148.202 77.6351 147.208 78.0467 146.474 78.7782C145.741 79.5098 145.328 80.5017 145.327 81.5364V131.152C145.328 132.187 145.741 133.179 146.474 133.911C147.208 134.642 148.202 135.054 149.239 135.055H195.063C196.1 135.054 197.094 134.642 197.827 133.911C198.561 133.179 198.973 132.187 198.974 131.152V81.5364C198.973 80.5017 198.561 79.5098 197.827 78.7782C197.094 78.0467 196.1 77.6351 195.063 77.634H149.239Z" fill="#3F3D56"/>
<path d="M158.468 97.1459H153.997C153.331 97.1452 152.692 96.8806 152.22 96.4103C151.749 95.94 151.483 95.3024 151.483 94.6373V90.1774C151.483 89.5123 151.749 88.8746 152.22 88.4043C152.692 87.934 153.331 87.6694 153.997 87.6687H158.468C159.135 87.6694 159.774 87.934 160.245 88.4043C160.717 88.8746 160.982 89.5123 160.983 90.1774V94.6373C160.982 95.3024 160.717 95.94 160.245 96.4103C159.774 96.8806 159.135 97.1452 158.468 97.1459Z" fill="#0FBFFF"/>
<path d="M158.468 111.083H153.997C153.331 111.082 152.692 110.818 152.22 110.347C151.749 109.877 151.483 109.239 151.483 108.574V104.114C151.483 103.449 151.749 102.812 152.22 102.341C152.692 101.871 153.331 101.607 153.997 101.606H158.468C159.135 101.607 159.774 101.871 160.245 102.341C160.717 102.812 160.982 103.449 160.983 104.114V108.574C160.982 109.239 160.717 109.877 160.245 110.347C159.774 110.818 159.135 111.082 158.468 111.083Z" fill="#CCCCCC"/>
<path d="M191.142 94.4349H170.271C169.826 94.4344 169.4 94.258 169.086 93.9445C168.772 93.6309 168.595 93.2058 168.594 92.7624V92.0522C168.595 91.6088 168.772 91.1837 169.086 90.8701C169.4 90.5566 169.826 90.3802 170.271 90.3798H191.142C191.587 90.3802 192.013 90.5566 192.327 90.8701C192.642 91.1837 192.818 91.6088 192.819 92.0522V92.7624C192.818 93.2058 192.642 93.6309 192.327 93.9445C192.013 94.258 191.587 94.4344 191.142 94.4349Z" fill="#0FBFFF"/>
<path d="M191.142 108.372H170.271C169.826 108.371 169.4 108.195 169.086 107.882C168.772 107.568 168.595 107.143 168.594 106.7V105.989C168.595 105.546 168.772 105.121 169.086 104.807C169.4 104.494 169.826 104.317 170.271 104.317H191.142C191.587 104.317 192.013 104.494 192.327 104.807C192.642 105.121 192.818 105.546 192.819 105.989V106.7C192.818 107.143 192.642 107.568 192.327 107.882C192.013 108.195 191.587 108.371 191.142 108.372Z" fill="#CCCCCC"/>
<path d="M158.468 125.02H153.997C153.331 125.019 152.692 124.755 152.22 124.285C151.749 123.814 151.483 123.177 151.483 122.511V118.052C151.483 117.386 151.749 116.749 152.22 116.278C152.692 115.808 153.331 115.544 153.997 115.543H158.468C159.135 115.544 159.774 115.808 160.245 116.278C160.717 116.749 160.982 117.386 160.983 118.052V122.511C160.982 123.177 160.717 123.814 160.245 124.285C159.774 124.755 159.135 125.019 158.468 125.02Z" fill="#CCCCCC"/>
<path d="M191.142 122.309H170.271C169.826 122.309 169.4 122.132 169.086 121.819C168.772 121.505 168.595 121.08 168.594 120.637V119.926C168.595 119.483 168.772 119.058 169.086 118.744C169.4 118.431 169.826 118.254 170.271 118.254H191.142C191.587 118.254 192.013 118.431 192.327 118.744C192.642 119.058 192.818 119.483 192.819 119.926V120.637C192.818 121.08 192.642 121.505 192.327 121.819C192.013 122.132 191.587 122.309 191.142 122.309Z" fill="#CCCCCC"/>
</g>
<defs>
<clipPath id="clip0_719_1650">
<rect width="266" height="224" fill="white" transform="translate(0 60)"/>
</clipPath>
</defs>
</svg>
