<svg width="271" height="284" viewBox="0 0 271 284" fill="none" xmlns="http://www.w3.org/2000/svg">
<path fill-rule="evenodd" clip-rule="evenodd" d="M153 236C218.17 236 271 183.17 271 118C271 52.8304 218.17 0 153 0C87.8304 0 35 52.8304 35 118C35 128.846 36.4632 139.35 39.2031 149.325C16.2417 158.409 0 180.808 0 207C0 241.242 27.7583 269 62 269C87.7041 269 109.755 253.358 119.153 231.074C129.874 234.279 141.236 236 153 236Z" fill="#43C7FF" fill-opacity="0.2"/>
<path d="M49.3886 187.595H31.3106C30.8211 187.594 30.3518 187.4 30.0056 187.055C29.6594 186.71 29.4647 186.242 29.4641 185.754V126.353C29.4647 125.865 29.6594 125.397 30.0056 125.051C30.3518 124.706 30.8211 124.512 31.3106 124.512H49.3886C49.8782 124.512 50.3475 124.706 50.6936 125.051C51.0398 125.397 51.2345 125.865 51.2351 126.353V185.754C51.2345 186.242 51.0398 186.71 50.6936 187.055C50.3475 187.4 49.8782 187.594 49.3886 187.595Z" fill="#0FBFFF"/>
<path d="M82.3562 187.595H64.2781C63.7886 187.594 63.3193 187.4 62.9731 187.055C62.627 186.71 62.4322 186.242 62.4316 185.753V102.781C62.4322 102.293 62.627 101.825 62.9731 101.48C63.3193 101.135 63.7886 100.941 64.2781 100.94H82.3562C82.8457 100.941 83.315 101.135 83.6612 101.48C84.0073 101.825 84.2021 102.293 84.2027 102.781V185.753C84.2021 186.242 84.0073 186.71 83.6612 187.055C83.315 187.4 82.8457 187.594 82.3562 187.595Z" fill="#0FBFFF"/>
<path d="M115.324 187.595H97.2457C96.7561 187.594 96.2868 187.4 95.9407 187.055C95.5945 186.71 95.3998 186.242 95.3992 185.754V126.353C95.3998 125.865 95.5945 125.397 95.9407 125.051C96.2868 124.706 96.7561 124.512 97.2457 124.512H115.324C115.813 124.512 116.283 124.706 116.629 125.051C116.975 125.397 117.17 125.865 117.17 126.353V185.754C117.17 186.242 116.975 186.71 116.629 187.055C116.283 187.4 115.813 187.594 115.324 187.595Z" fill="#0FBFFF"/>
<path d="M148.291 187.595H130.213C129.735 187.605 129.272 187.426 128.926 187.096C128.58 186.767 128.379 186.314 128.367 185.837V93.3933C128.379 92.9163 128.58 92.4635 128.926 92.134C129.272 91.8045 129.735 91.6253 130.213 91.6355H148.291C148.77 91.6253 149.233 91.8045 149.579 92.134C149.925 92.4635 150.126 92.9163 150.138 93.3933V185.837C150.126 186.314 149.925 186.767 149.579 187.096C149.233 187.426 148.77 187.605 148.291 187.595Z" fill="#0FBFFF"/>
<path d="M181.259 187.595H163.181C162.691 187.594 162.222 187.4 161.876 187.055C161.53 186.71 161.335 186.242 161.334 185.753V76.7285C161.335 76.2404 161.53 75.7723 161.876 75.4272C162.222 75.082 162.691 74.8878 163.181 74.8873H181.259C181.748 74.8878 182.218 75.082 182.564 75.4272C182.91 75.7723 183.105 76.2404 183.105 76.7285V185.753C183.105 186.242 182.91 186.71 182.564 187.055C182.218 187.4 181.748 187.594 181.259 187.595Z" fill="#0FBFFF"/>
<path d="M40.3496 117.068C42.4108 117.068 44.0818 115.402 44.0818 113.346C44.0818 111.291 42.4108 109.624 40.3496 109.624C38.2884 109.624 36.6174 111.291 36.6174 113.346C36.6174 115.402 38.2884 117.068 40.3496 117.068Z" fill="#3F3D56"/>
<path d="M73.3171 92.8761C75.3784 92.8761 77.0493 91.2098 77.0493 89.1543C77.0493 87.0988 75.3784 85.4325 73.3171 85.4325C71.2559 85.4325 69.585 87.0988 69.585 89.1543C69.585 91.2098 71.2559 92.8761 73.3171 92.8761Z" fill="#3F3D56"/>
<path d="M106.285 117.068C108.346 117.068 110.017 115.402 110.017 113.346C110.017 111.291 108.346 109.624 106.285 109.624C104.223 109.624 102.552 111.291 102.552 113.346C102.552 115.402 104.223 117.068 106.285 117.068Z" fill="#3F3D56"/>
<path d="M139.252 81.0903C141.313 81.0903 142.984 79.424 142.984 77.3685C142.984 75.313 141.313 73.6467 139.252 73.6467C137.191 73.6467 135.52 75.313 135.52 77.3685C135.52 79.424 137.191 81.0903 139.252 81.0903Z" fill="#3F3D56"/>
<path d="M172.22 67.4437C174.281 67.4437 175.952 65.7773 175.952 63.7218C175.952 61.6663 174.281 60 172.22 60C170.159 60 168.488 61.6663 168.488 63.7218C168.488 65.7773 170.159 67.4437 172.22 67.4437Z" fill="#3F3D56"/>
<path d="M40.1506 113.579L39.803 113.113L73.3174 88.2313L106.178 112.674L139.489 76.6082L139.549 76.5839L171.876 63.2784L172.098 63.8152L139.83 77.096L106.251 113.452L73.3171 88.9553L40.1506 113.579Z" fill="#3F3D56"/>
<path d="M178.133 187.725C178.557 187.305 178.884 186.797 179.09 186.236C179.296 185.676 179.376 185.078 179.325 184.483C179.274 183.889 179.093 183.313 178.795 182.796C178.497 182.278 178.088 181.833 177.599 181.49L179.628 172.386L174.381 169.807L171.696 182.704C171.173 183.562 170.984 184.582 171.165 185.571C171.346 186.559 171.884 187.446 172.678 188.065C173.471 188.684 174.465 188.992 175.47 188.929C176.475 188.866 177.423 188.438 178.133 187.725Z" fill="#FFB7B7"/>
<path d="M235.513 187.925C235.904 187.473 236.19 186.941 236.352 186.367C236.514 185.792 236.548 185.189 236.451 184.601C236.354 184.012 236.129 183.451 235.792 182.959C235.454 182.466 235.012 182.053 234.497 181.749L235.814 172.516L230.382 170.35L228.707 183.415C228.252 184.311 228.143 185.343 228.4 186.314C228.657 187.285 229.262 188.129 230.101 188.685C230.94 189.241 231.955 189.47 232.952 189.33C233.95 189.19 234.861 188.69 235.513 187.925L235.513 187.925Z" fill="#FFB7B7"/>
<path d="M194.61 278.546L189.259 278.546L186.714 257.964L194.611 257.965L194.61 278.546Z" fill="#FFB7B7"/>
<path d="M195.974 283.718L178.721 283.718V283.5C178.721 281.724 179.429 280.021 180.688 278.765C181.948 277.509 183.656 276.803 185.437 276.803H185.437L195.975 276.804L195.974 283.718Z" fill="#2F2E41"/>
<path d="M212.504 278.546L207.153 278.546L204.608 257.964L212.505 257.965L212.504 278.546Z" fill="#FFB7B7"/>
<path d="M213.869 283.718L196.616 283.718V283.5C196.616 281.724 197.323 280.021 198.583 278.765C199.842 277.509 201.55 276.803 203.331 276.803H203.331L213.869 276.804L213.869 283.718Z" fill="#2F2E41"/>
<path d="M223.277 105.39L229.047 103.314C229.047 103.314 231.496 103.832 231.496 110.455C231.496 117.078 238 178.844 238 178.844L226.618 181.833L220.185 123.232L223.277 105.39Z" fill="#2F2E41"/>
<path d="M184.796 175.835L183.219 222.232L186.711 273.556L195.707 273.764L197.017 225.887L204.436 201.949L203.688 272.505L213.875 272.384L220.185 223.842C220.185 223.842 228.517 183.669 223.896 175.835L202.617 168.778L184.796 175.835Z" fill="#2F2E41"/>
<path d="M184.97 170.244L184.456 181.405C184.456 181.405 191.636 184.968 204.256 182.798C216.875 180.628 225.264 182.058 225.264 182.058L224.295 167.83L184.97 170.244Z" fill="#E5E5E5"/>
<path d="M204.232 88.8611C210.152 88.8611 214.952 84.0751 214.952 78.1713C214.952 72.2674 210.152 67.4814 204.232 67.4814C198.312 67.4814 193.512 72.2674 193.512 78.1713C193.512 84.0751 198.312 88.8611 204.232 88.8611Z" fill="#FFB7B7"/>
<path d="M216.969 74.0291C216.777 73.1591 216.409 72.3376 215.886 71.6154C215.677 69.6183 215.009 67.6961 213.934 65.9988C213.512 65.2034 212.914 64.5147 212.184 63.9856C211.349 63.5059 210.396 63.2689 209.433 63.3014C209.258 63.2985 208.944 63.3514 208.661 63.3642C208.48 63.3083 208.297 63.2585 208.114 63.2116C208.007 62.9744 207.795 62.2833 207.736 62.3301L206.938 62.9628C206.6 62.9044 206.261 62.8588 205.92 62.8227C205.796 62.4699 205.672 62.1172 205.548 61.7644C205.347 62.0799 205.171 62.4105 205.021 62.7532C204.681 62.7366 204.342 62.7308 204.003 62.7358L203.324 62.0856C203.284 62.2669 203.192 62.4327 203.059 62.5626C202.926 62.6925 202.758 62.7809 202.575 62.817C202.263 62.8489 201.952 62.8906 201.642 62.9404C201.617 62.9402 201.591 62.9404 201.566 62.9397C199.895 62.8982 198.097 62.8234 196.699 63.7385C196.045 64.1863 195.513 64.7888 195.15 65.4922C194.979 65.6082 194.807 65.7233 194.641 65.8463C194.08 66.2276 193.594 66.7079 193.207 67.2636C192.926 67.7429 192.712 68.2587 192.573 68.7964C192.039 70.4148 191.792 72.1134 191.842 73.8163C191.9 75.5307 192.548 77.173 193.679 78.4658C194.396 79.2338 195.307 79.801 196.025 80.5681C197.503 82.1476 197.78 84.3506 199.044 86.022C200.381 87.7897 202.821 88.9529 204.964 89.2863C206.253 89.48 207.567 89.4178 208.832 89.1033C210.096 88.7889 211.285 88.2284 212.332 87.454C212.834 87.1052 213.261 86.6592 213.586 86.1425C214.33 84.8594 214.015 83.2467 214.291 81.7905C214.809 79.0608 217.421 76.7702 216.969 74.0291Z" fill="#2F2E41"/>
<path d="M184.722 105.39L178.953 103.314C178.953 103.314 176.504 103.832 176.504 110.455C176.504 117.078 170 178.844 170 178.844L181.382 181.833L187.815 123.232L184.722 105.39Z" fill="#2F2E41"/>
<path d="M178.723 103.478L195.317 96.227L196.307 92.4291L212.45 92.8954L213.148 96.7754L229.047 103.314L222.042 127.604L222.761 144.692L231.496 175.835C231.496 175.835 224.128 182.075 206.426 179.39L203.372 173.253L201.503 179.743C201.503 179.743 185.981 185.438 181.679 178.025L184.796 124.477L178.723 103.478Z" fill="#2F2E41"/>
</svg>
