<svg width="177" height="36" viewBox="0 0 177 36" fill="none" xmlns="http://www.w3.org/2000/svg">
<path d="M32.5557 2.19584C31.8244 1.69667 30.9988 1.3517 30.1295 1.18195C29.5876 1.05705 29.0336 0.992668 28.4775 0.990053C27.3206 1.00035 26.1837 1.29311 25.1659 1.8428L24.2269 0L21.2106 6.32911L28.1992 7.80779L27.2874 6.01704C27.4057 5.95018 27.5294 5.89313 27.6571 5.84648C27.9727 5.73157 28.3079 5.67997 28.6435 5.6946C28.9792 5.70923 29.3085 5.78979 29.6129 5.93173C29.917 6.07411 30.1901 6.27502 30.4164 6.52289C30.6428 6.77076 30.818 7.06076 30.932 7.37632C31.0268 7.67303 31.0661 7.98464 31.0481 8.29558C31.0515 14.8834 31.0495 21.4711 31.0421 28.0589C31.0446 28.1565 31.0415 28.2542 31.0327 28.3514C31.0036 28.6766 30.9107 28.9929 30.7592 29.2823C30.6077 29.5716 30.4006 29.8283 30.1497 30.0377C29.8989 30.2471 29.6092 30.4051 29.2972 30.5026C28.9852 30.6001 28.6571 30.6353 28.3315 30.6061L28.0933 30.595C27.5061 30.4485 26.9761 30.1302 26.5711 29.6809C25.5239 28.6115 24.471 27.5475 23.4124 26.489C21.5205 24.5993 19.6273 22.7111 17.7326 20.8242C17.6514 20.7517 17.5658 20.6842 17.4765 20.6221C17.5087 20.5824 17.5512 20.5521 17.5993 20.5345C17.6474 20.5169 17.6993 20.5128 17.7496 20.5223C17.7684 20.5238 17.7873 20.5238 17.806 20.5223H20.0906C21.1782 20.5223 22.2661 20.5223 23.3543 20.5223C24.0456 20.5514 24.7201 20.3051 25.2295 19.8375C25.739 19.3699 26.0416 18.7193 26.0709 18.0289C26.0874 17.6429 26.0181 17.2581 25.8678 16.9021C25.7175 16.5461 25.49 16.2279 25.2018 15.9703L20.2647 11.0244L14.0676 4.82145C13.9993 4.75323 13.9258 4.68927 13.855 4.62361C13.0106 3.6556 12.0576 2.7878 11.0147 2.03725C10.2021 1.54203 9.29975 1.2118 8.35925 1.06547C7.41875 0.919141 6.45863 0.959588 5.53381 1.1845C4.60888 1.40916 3.73739 1.81385 2.96931 2.37546C2.20123 2.93707 1.55162 3.64453 1.05772 4.45732C0.782221 4.90949 0.557192 5.39048 0.386683 5.89165C0.229074 6.41624 0.124688 6.95536 0.0750837 7.50081C0.000576808 8.4537 -0.0184838 9.41011 0.0179224 10.3652C0.0102389 16.2091 0.017894 22.053 0.0102105 27.896C-0.0224533 29.1511 0.263905 30.3939 0.842567 31.5083C1.68443 33.1202 3.1176 34.3445 4.84229 34.9253C5.62798 35.206 6.45544 35.3522 7.28986 35.3576C8.61459 35.3442 9.91018 34.9675 11.0352 34.2687C11.5027 33.9796 11.931 33.6317 12.3097 33.2334C12.5727 32.9657 12.8288 32.6911 13.096 32.4276L14.4765 33.8124L15.3814 26.9214L8.34336 27.6709L9.80663 29.1368C9.49656 29.4842 9.15916 29.8061 8.79757 30.0995C8.49259 30.345 8.1324 30.5127 7.74809 30.5882C7.36378 30.6636 6.96684 30.6446 6.59152 30.5327C6.07537 30.4026 5.61556 30.1085 5.2814 29.6946C4.94724 29.2806 4.75686 28.7694 4.73897 28.238C4.73214 28.122 4.72787 28.0069 4.72787 27.8918V8.44907C4.7016 8.08629 4.75159 7.72203 4.87465 7.3797C4.99771 7.03737 5.1911 6.72454 5.44241 6.46132L5.45096 6.45278C5.68111 6.2199 5.95502 6.03464 6.25695 5.90763C6.55887 5.78062 6.8829 5.71436 7.2105 5.71261C7.53823 5.71078 7.86306 5.77353 8.16646 5.89733C8.46985 6.02112 8.74583 6.20353 8.97854 6.43404C9.45065 6.88685 9.91252 7.35326 10.3787 7.81289C10.4495 7.89049 10.5204 7.96983 10.5946 8.04487C13.0829 10.54 15.5732 13.0346 18.0655 15.5286C18.1338 15.596 18.2107 15.6548 18.2969 15.7299C18.2545 15.7626 18.2055 15.7856 18.1533 15.7974C18.1011 15.8092 18.047 15.8094 17.9947 15.7981H16.026C14.8604 15.7981 13.6937 15.7998 12.5258 15.8032C12.114 15.7795 11.7021 15.8489 11.3209 16.0063C10.9396 16.1637 10.5989 16.405 10.324 16.7122C9.93384 17.1665 9.71319 17.7416 9.69949 18.3399C9.6858 18.9383 9.87989 19.5229 10.2489 19.9945C10.3765 20.1535 10.5143 20.3041 10.6612 20.4456C14.2207 24.0112 17.7812 27.5766 21.3429 31.1416C22.0558 31.8545 22.7567 32.5734 23.4772 33.2735C24.5592 34.3612 25.969 35.0635 27.4897 35.2724C28.7635 35.4772 30.0694 35.3178 31.2563 34.8127C32.2783 34.4134 33.1927 33.7808 33.9263 32.9656C34.6599 32.1503 35.1925 31.1749 35.4814 30.1174C35.6763 29.4345 35.7717 28.7272 35.7648 28.0172V8.38256C35.8055 7.16176 35.531 5.95106 34.9676 4.86694C34.4042 3.78282 33.5709 2.86179 32.548 2.19246L32.5557 2.19584Z" fill="#0FBFFF"/>
<path d="M84.857 18.8354L77.3528 9.09952H74.4502V25.6156H78.146V15.8601L85.6501 25.6139H88.5716V9.09863H84.8545L84.857 18.8354Z" fill="#091324"/>
<path d="M103.531 16.7347C102.472 16.2956 101.374 15.9576 100.251 15.7251C99.4001 15.5728 98.5772 15.291 97.8115 14.8893C97.6495 14.7942 97.5168 14.6564 97.4279 14.4909C97.3391 14.3255 97.2975 14.1388 97.3078 13.9513C97.2999 13.7145 97.3522 13.4795 97.4598 13.2684C97.5675 13.0572 97.7269 12.8767 97.9233 12.7438C98.5459 12.3593 99.2724 12.1769 100.003 12.2219C101.545 12.2226 103.039 12.7603 104.227 13.7424L104.761 14.1841L106.158 11.1338L105.86 10.8729C105.105 10.2147 104.221 9.72096 103.264 9.42323C102.215 9.07639 101.117 8.89987 100.012 8.90047C98.8615 8.87545 97.7185 9.0949 96.659 9.5443C95.7207 9.93559 94.9107 10.5813 94.3206 11.4084C93.7632 12.2035 93.4691 13.153 93.4797 14.1236C93.4432 15.0175 93.6968 15.8993 94.2028 16.6375C94.7326 17.3303 95.4357 17.8715 96.2415 18.2066C97.2875 18.6513 98.377 18.986 99.4925 19.2051C100.367 19.3642 101.216 19.6429 102.014 20.0332C102.175 20.1158 102.308 20.2422 102.399 20.3978C102.489 20.5534 102.534 20.7316 102.527 20.9115C102.533 21.1292 102.481 21.3447 102.377 21.536C102.273 21.7273 102.12 21.8875 101.933 22.0004C101.268 22.3683 100.511 22.5401 99.752 22.4959H99.717C98.8625 22.5063 98.0117 22.382 97.196 22.1275C96.4013 21.8702 95.6576 21.4763 94.9985 20.9635L94.4675 20.5516L93.0708 23.6002L93.3978 23.856C94.2313 24.5163 95.1851 25.0086 96.2065 25.3057C97.336 25.6525 98.5124 25.8228 99.694 25.8105H99.8903C101.007 25.8102 102.115 25.6079 103.16 25.2136C104.113 24.8638 104.941 24.2409 105.541 23.4228C106.097 22.6316 106.388 21.6845 106.371 20.7179C106.403 19.8336 106.132 18.9649 105.603 18.2552C105.049 17.5849 104.337 17.0625 103.531 16.7347Z" fill="#091324"/>
<path d="M58.4551 25.6147H69.8761V22.318H62.2823V18.8609H69.4373V15.5872H62.2823V12.3953H69.8761V9.09863H58.4551V25.6147Z" fill="#091324"/>
<path d="M53.7681 11.8377V9.09863H41.5557V12.4158H49.0035L41.5574 22.8544V25.6156H54.0097V22.2967H46.2776L53.7681 11.8377Z" fill="#091324"/>
<path d="M118.599 12.2644C119.28 12.2602 119.957 12.3777 120.597 12.6115C121.3 12.8853 121.956 13.2677 122.54 13.7448L123.072 14.1797L124.462 11.1388L124.175 10.8787C123.451 10.2195 122.596 9.71954 121.665 9.41114C120.667 9.07048 119.619 8.89756 118.564 8.89945C117.077 8.86576 115.607 9.22652 114.305 9.94494C113.085 10.6382 112.101 11.6796 111.478 12.9356C110.813 14.3048 110.483 15.8118 110.514 17.3332C110.482 18.8666 110.813 20.386 111.48 21.7675C112.101 23.0292 113.088 24.0755 114.311 24.7709C115.553 25.4548 116.948 25.8136 118.367 25.8138C118.429 25.8138 118.493 25.8138 118.555 25.8138C119.611 25.8173 120.66 25.6443 121.659 25.3022C122.591 24.9937 123.448 24.4928 124.175 23.832L124.462 23.571L123.071 20.5327L122.538 20.9676C121.957 21.4432 121.305 21.825 120.606 22.0992C119.974 22.3316 119.306 22.4503 118.632 22.4497C118.055 22.4904 117.477 22.3982 116.942 22.1801C116.406 21.962 115.928 21.6239 115.544 21.1919C114.741 20.077 114.354 18.7162 114.451 17.346C114.356 15.9823 114.744 14.6288 115.546 13.5214C115.924 13.0919 116.396 12.755 116.926 12.5371C117.455 12.3191 118.028 12.2258 118.599 12.2644Z" fill="#091324"/>
<path d="M177 12.3954V9.09863H165.58V25.6147H177V22.318H169.407V18.8609H176.562V15.5872H169.407V12.3954H177Z" fill="#091324"/>
<path d="M134.187 9.09863L126.704 25.6147H130.73L132.287 21.9974H139.117L140.674 25.6147H144.656L137.174 9.09863H134.187ZM137.718 18.7441H133.666L135.692 14.0412L137.718 18.7441Z" fill="#091324"/>
<path d="M155.315 9.0993H148.022V25.6154H151.916V19.6077H155.315C156.846 19.6932 158.353 19.198 159.534 18.2212C160.059 17.7257 160.47 17.1222 160.739 16.4525C161.008 15.7827 161.128 15.0627 161.091 14.342C161.128 13.6227 161.009 12.9039 160.74 12.2356C160.471 11.5673 160.059 10.9656 159.534 10.4723C158.349 9.50417 156.843 9.01434 155.315 9.0993ZM157.349 14.3651C157.349 15.3031 157.078 16.3776 154.959 16.3776H151.914V12.3525H154.959C155.614 12.2974 156.267 12.4727 156.806 12.848C157.003 13.0454 157.153 13.2838 157.247 13.5461C157.341 13.8083 157.375 14.0879 157.348 14.3651H157.349Z" fill="#091324"/>
</svg>
