<svg viewBox="0 0 2913.18 817.98" xmlns="http://www.w3.org/2000/svg"><path d="m796 569.16h-528.46v-294.71h-81.4v335.43a40.69 40.69 0 0 0 40.71 40.7h463l-95.61 86h-512.85v-487.78h104.75 81.4 342.31a40.67 40.67 0 0 0 27.22-10.44l186.16-167.36a40.7 40.7 0 0 0 -27.23-71h-569.15a40.7 40.7 0 0 0 -40.71 40.7v101h81.4v-60.29h422.33l-95.61 86h-326.72-81.4-145.45a40.7 40.7 0 0 0 -40.69 40.69v569.17a40.7 40.7 0 0 0 40.69 40.73h569.16a40.71 40.71 0 0 0 27.22-10.43l186.16-167.44a40.7 40.7 0 0 0 -27.21-71z" fill="#e91d3d"/><g fill="#18315a"><path d="m1141.23 242.79c67.06 0 139.67 36.54 152.16 123h-81.39c-11.56-32.84-36.07-47.64-70.75-47.64-48.56 0-80.46 36.55-80.46 90.17 0 47.65 31.43 89.27 80.46 89.73 35.15 0 63.36-17.59 72.15-52.26h81.4c-12 91.57-84.65 127.64-153.55 127.64-82.32.47-165.56-55-166-165.11.42-110.03 83.66-165.53 165.98-165.53z"/><path d="m1319.7 408.8c0-223.81 332-223.81 332 0 .05 224.32-332 224.32-332 0zm247.42 0c0-116.52-162.34-116.52-162.34 0 0 117.47 162.34 117.47 162.34 0z"/><path d="m1972.19 245.58h29.6v324.63h-84.63v-144.29l-68.91 72.15h-9.25l-68.44-72.15v144.29h-84.62v-324.63h30.51l126.72 140.57z"/><path d="m2178.41 570.21h-122.1v-323.71h122.1c210.87.92 210.87 322.77 0 323.71zm-39.32-75.37h39.32c103.13 0 103.13-173 0-173h-39.32z"/><path d="m2573.77 320.49h-119.77v45.78h110.07v73.52h-110.07v56.89h123.93v73.53h-206.27v-323.71h202.11z"/><path d="m2762 468.47-62 101.74h-86.47v-12.49l104.47-159.08-93.39-139.64v-12.5h84.63l52.76 84.18h2.29l54.12-84.18h83.25v12.5l-93.46 139.64 105 159.08v12.49h-86.95l-61.51-101.74z"/></g></svg>