<svg fill="none" height="84" viewBox="0 0 444 84" width="444" xmlns="http://www.w3.org/2000/svg" xmlns:xlink="http://www.w3.org/1999/xlink"><radialGradient id="a" cx="42" cy="42" gradientUnits="userSpaceOnUse" r="42"><stop offset=".473958" stop-color="#ffc640"/><stop offset="1" stop-color="#f2af13"/></radialGradient><path d="m72 0h-60c-6.62742 0-12 5.37258-12 12v60c0 6.6274 5.37258 12 12 12h60c6.6274 0 12-5.3726 12-12v-60c0-6.62742-5.3726-12-12-12z" fill="url(#a)"/><path d="m38 22h-20c-1.5913 0-3.1174.6321-4.2426 1.7574-1.1253 1.1252-1.7574 2.6513-1.7574 4.2426v28c.0023 1.2699.4074 2.5064 1.1572 3.5314.7497 1.025 1.8053 1.7857 3.0149 2.1726s2.5107.38 3.7161-.0196c1.2054-.3997 2.253-1.1715 2.9918-2.2044l20-28c.6386-.8969 1.0181-1.9522 1.0969-3.0504.0788-1.0981-.146-2.1968-.6499-3.1757s-1.2675-1.8003-2.207-2.3742c-.9396-.574-2.019-.8783-3.12-.8797zm-16 14c-.7911 0-1.5645-.2346-2.2223-.6741s-1.1705-1.0643-1.4732-1.7952c-.3028-.7309-.382-1.5351-.2276-2.3111.1543-.7759.5353-1.4886 1.0947-2.048s1.2721-.9404 2.048-1.0947c.776-.1544 1.5802-.0752 2.3111.2276.7309.3027 1.3557.8154 1.7952 1.4732s.6741 1.4312.6741 2.2223c0 1.0609-.4214 2.0783-1.1716 2.8284-.7501.7502-1.7675 1.1716-2.8284 1.1716z" fill="#0d0a03"/><path d="m53 60c2.7614 0 5-2.2386 5-5s-2.2386-5-5-5-5 2.2386-5 5 2.2386 5 5 5z" fill="#0d0a03"/><path d="m71.9999 28v28c.0023 1.4973-.5553 2.9413-1.5633 4.0485-1.008 1.1071-2.3935 1.7974-3.8844 1.9352s-2.9795-.2868-4.1733-1.1904c-1.1939-.9036-2.0068-2.221-2.279-3.6933-.0639-.3632-.0973-.7312-.1-1.1v-4.56c-.0106-1.2665-.4218-2.4972-1.1746-3.5158-.7529-1.0185-1.8087-1.7727-3.0164-2.1546-1.2076-.3818-2.5051-.3717-3.7067.029-1.2015.4006-2.2454 1.1712-2.9823 2.2014l-3.12 4.38-5.02 7.04c-.9574 1.2174-2.3485 2.0174-3.8823 2.2327-1.5337.2153-3.0913-.1709-4.3468-1.0777-1.2556-.9068-2.1119-2.264-2.3898-3.7876-.2778-1.5237.0443-3.0958.8989-4.3874l20-28c.5528-.7371 1.2679-1.337 2.0899-1.7532s1.7288-.6376 2.6501-.6468h10c1.5913 0 3.1174.6321 4.2427 1.7574 1.1252 1.1252 1.7573 2.6513 1.7573 4.2426z" fill="#fffdfa"/><g fill="#0d0a03"><path d="m122.36 22h-12.86l-13.5 40h10.4l2.62-8.4h13.82l2.64 8.4h10.38zm-11.04 24.24 4.44-14.24h.24l4.46 14.18z"/><path d="m164.34 41.16-8.78.24c-.082-.619-.339-1.2018-.74-1.68-.425-.5044-.968-.896-1.58-1.14-.703-.2921-1.459-.4351-2.22-.42-.982-.033-1.955.1947-2.82.66-.3.1436-.559.3598-.755.6288-.195.2691-.32.5825-.364.9121-.043.3296-.004.6649.114.9755.119.3106.313.5868.565.8036.778.5498 1.676.9063 2.62 1.04l5.78 1.08c2.451.3283 4.767 1.3169 6.7 2.86.728.6681 1.304 1.4859 1.687 2.3972s.565 1.8947.533 2.8828c.021 1.9451-.629 3.838-1.84 5.36-1.3 1.5924-2.997 2.8135-4.92 3.54-2.284.8755-4.715 1.3033-7.16 1.26-3.558.221-7.096-.674-10.12-2.56-1.178-.805-2.166-1.8574-2.895-3.0837s-1.181-2.597-1.325-4.0163l9.42-.24c.083.5058.27.989.549 1.4192.278.4303.643.7982 1.071 1.0808 1.007.6004 2.168.8924 3.34.84 1.043.0475 2.079-.1875 3-.68.347-.1607.641-.4175.846-.7401.206-.3226.315-.6974.314-1.0799.005-.3251-.076-.6458-.234-.9301-.158-.2842-.388-.5221-.666-.6899-.837-.5113-1.769-.8449-2.74-.98l-5.24-.98c-2.494-.3168-4.836-1.3759-6.72-3.04-.736-.7411-1.309-1.6268-1.684-2.6011-.376-.9743-.544-2.0159-.496-3.0589-.067-1.8454.498-3.6584 1.6-5.14 1.186-1.5127 2.783-2.6515 4.6-3.28 2.264-.8054 4.657-1.1917 7.06-1.14 3.39-.187 6.753.7096 9.6 2.56 1.125.794 2.059 1.829 2.734 3.0295.674 1.2006 1.073 2.5365 1.166 3.9105z"/><path d="m194.86 41.16-8.86.24c-.082-.619-.339-1.2018-.74-1.68-.425-.5044-.968-.896-1.58-1.14-.703-.2921-1.459-.4351-2.22-.42-.982-.033-1.955.1947-2.82.66-.3.1436-.559.3598-.755.6288-.195.2691-.32.5826-.364.9121-.043.3296-.004.6649.114.9755.119.3106.313.5868.565.8036.778.5498 1.676.9063 2.62 1.04l5.78 1.08c2.451.3283 4.767 1.3169 6.7 2.86.743.6608 1.334 1.4752 1.731 2.387.397.9117.591 1.8988.569 2.893.021 1.9451-.629 3.838-1.84 5.36-1.3 1.5924-2.997 2.8135-4.92 3.54-2.284.8755-4.715 1.3033-7.16 1.26-3.558.221-7.096-.674-10.12-2.56-1.178-.805-2.166-1.8574-2.895-3.0837s-1.181-2.597-1.325-4.0163l9.42-.24c.083.5058.27.989.549 1.4192.278.4303.643.7982 1.071 1.0808 1.005.6074 2.166.9064 3.34.86 1.043.0475 2.079-.1874 3-.68.347-.1607.641-.4175.846-.7401.206-.3226.315-.6974.314-1.0799.005-.3251-.076-.6458-.234-.9301-.158-.2842-.388-.5221-.666-.6899-.837-.5113-1.769-.8449-2.74-.98l-5.24-.98c-2.494-.3168-4.836-1.3759-6.72-3.04-.736-.7411-1.309-1.6268-1.684-2.6011-.376-.9743-.544-2.0159-.496-3.0589-.067-1.8454.498-3.6584 1.6-5.14 1.186-1.5127 2.783-2.6515 4.6-3.28 2.264-.8054 4.657-1.1917 7.06-1.14 3.39-.187 6.753.7096 9.6 2.56 1.123.7919 2.055 1.8237 2.73 3.0206.674 1.1969 1.074 2.5289 1.17 3.8994z"/><path d="m227.44 49.3v-2.38c.039-2.2339-.327-4.4565-1.08-6.56-.637-1.8061-1.66-3.4511-3-4.82-1.292-1.304-2.856-2.3077-4.58-2.94-1.878-.6799-3.862-1.0185-5.86-1-2.759-.0542-5.481.6368-7.88 2-2.213 1.2788-4.011 3.1673-5.18 5.44-1.267 2.4951-1.905 5.2619-1.86 8.06-.072 2.8625.56 5.6989 1.84 8.26 1.172 2.265 2.998 4.1255 5.24 5.34 2.469 1.2803 5.22 1.9199 8 1.86 2.362.0455 4.711-.3618 6.92-1.2 1.906-.6926 3.61-1.8471 4.96-3.36 1.233-1.4737 2.054-3.2469 2.38-5.14l-8.76-.24c-.239.6386-.622 1.2134-1.12 1.68-.513.4685-1.12.8229-1.78 1.04-.744.2322-1.52.3469-2.3.34-1.101.0265-2.191-.2355-3.16-.76-.858-.5061-1.553-1.2491-2-2.14-.5-.9982-.747-2.1039-.72-3.22v-.24zm-19.22-8.16c.482-.829 1.171-1.5183 2-2 .88-.4463 1.853-.6789 2.84-.6789s1.96.2326 2.84.6789c.822.4378 1.512 1.0868 2 1.88.47.8227.718 1.7529.72 2.7h-11.1c.007-.9059.249-1.7946.7-2.58z"/><path d="m248.72 61.56c-.44.14-1.1.3-2 .48-.973.216-1.964.3432-2.96.38-1.948.1463-3.906-.1265-5.74-.8-1.511-.549-2.798-1.5827-3.66-2.94-.882-1.5353-1.305-3.2914-1.22-5.06v-14.6h-4v-7.02h4v-7.2h9.54v7.2h5.42v7.02h-5.42v13.54c-.02.491.083.9792.3 1.42.173.3437.464.6135.82.76.423.1543.87.2289 1.32.22.389-.006.776-.0394 1.16-.1l.92-.2z"/><path d="m252.58 22h12l10.16 24.76h.46l10.14-24.76h12v40h-9.34v-24.56h-.34l-9.66 24.3h-6l-9.6-24.44h-.4v24.7h-9.42z"/><path d="m384.64 61.56c-.453.1467-1.12.3067-2 .48-.973.2146-1.964.3418-2.96.38-1.955.1449-3.918-.1278-5.76-.8-1.506-.5488-2.787-1.5831-3.64-2.94-.891-1.5319-1.315-3.2905-1.22-5.06v-14.6h-4v-7.02h4v-7.2h9.54v7.2h5.42v7.02h-5.42v13.54c-.016.4885.08.9743.28 1.42.181.3451.479.6145.84.76.416.1527.857.2273 1.3.22.389-.0051.776-.0385 1.16-.1l.94-.2z"/><path d="m324.88 34.22c-1.279-.9082-2.707-1.5851-4.22-2-1.72-.471-3.497-.6999-5.28-.68-2.36-.0563-4.707.3655-6.9 1.24-1.767.7186-3.313 1.8916-4.48 3.4-1.084 1.4303-1.773 3.1199-2 4.9l8.8.3c.182-.9114.704-1.7194 1.46-2.26.912-.5801 1.98-.8663 3.06-.82.993-.0501 1.973.2391 2.78.82.346.275.622.6293.803 1.0331s.262.8451.237 1.2869v.1c.011.2763-.048.5508-.17.7988s-.304.4615-.53.6212c-.703.401-1.478.6593-2.28.76-1.04.18-2.42.34-4.12.5-1.453.1145-2.893.3622-4.3.74-1.27.3454-2.473.8997-3.56 1.64-1.029.7159-1.861 1.6787-2.42 2.8-.621 1.3108-.923 2.7501-.88 4.2-.071 1.7369.375 3.4559 1.28 4.94.856 1.2995 2.072 2.3212 3.5 2.94 2.82 1.106 5.924 1.2605 8.84.44 1.071-.3301 2.065-.8745 2.92-1.6.818-.7231 1.496-1.591 2-2.56h.24v4.24h8.98v-20.4c.028-1.4466-.302-2.8778-.962-4.1656-.659-1.2878-1.628-2.3921-2.818-3.2144zm-5.7 17.1c.021.9152-.237 1.8153-.74 2.58-.507.7369-1.196 1.3296-2 1.72-.864.4268-1.817.6395-2.78.62-.961.0421-1.91-.2318-2.7-.78-.334-.2685-.596-.6153-.764-1.0095-.167-.3943-.235-.8239-.196-1.2505-.009-.598.165-1.1844.5-1.68.371-.5096.867-.9158 1.44-1.18.735-.3186 1.508-.5404 2.3-.66l1.4-.2 1.4-.28c.46-.1.88-.22 1.26-.34.336-.1008.664-.2279.98-.38z"/><path d="m361.04 36.96c.899 1.8336 1.338 3.8586 1.28 5.9v19.14h-9.56v-17.26c.102-1.4143-.35-2.8129-1.26-3.9-.452-.4779-1.003-.8509-1.615-1.0928-.611-.2419-1.269-.3467-1.925-.3072-.92-.016-1.829.2044-2.64.64-.764.4332-1.378 1.089-1.76 1.88-.438.9101-.657 1.9101-.64 2.92v17.12h-9.54v-30h9.08v5.5h.32c.623-1.7769 1.819-3.2964 3.4-4.32 1.735-1.1047 3.765-1.6558 5.82-1.58 1.93-.0473 3.834.4445 5.5 1.42 1.525.9562 2.752 2.3213 3.54 3.94z"/><path d="m398.04 22h-9.54v40h9.54z"/><path d="m431.26 49.3v-2.38c.039-2.2339-.327-4.4565-1.08-6.56-.637-1.8061-1.661-3.4511-3-4.82-1.293-1.304-2.856-2.3077-4.58-2.94-1.878-.6799-3.863-1.0185-5.86-1-2.759-.0542-5.481.6368-7.88 2-2.213 1.2788-4.011 3.1673-5.18 5.44-1.27 2.5149-1.902 5.3034-1.84 8.12-.072 2.8625.559 5.6989 1.84 8.26 1.172 2.265 2.998 4.1255 5.24 5.34 2.469 1.2803 5.22 1.9199 8 1.86 2.362.0455 4.711-.3618 6.92-1.2 1.905-.7126 3.603-1.8879 4.94-3.42 1.233-1.4737 2.054-3.2469 2.38-5.14l-8.76-.24c-.239.6386-.623 1.2134-1.12 1.68-.513.4685-1.12.8229-1.78 1.04-.744.2322-1.52.3469-2.3.34-1.101.0265-2.191-.2355-3.16-.76-.859-.5061-1.553-1.2491-2-2.14-.5-.9982-.747-2.1039-.72-3.22v-.24zm-19.26-8.16c.482-.829 1.171-1.5183 2-2 .88-.4463 1.853-.6789 2.84-.6789s1.96.2326 2.84.6789c.822.4378 1.512 1.0868 2 1.88.469.8227.717 1.7529.72 2.7h-11.1c.007-.9059.248-1.7946.7-2.58z"/></g></svg>